<svg data-v-fde0c5aa="" xmlns="http://www.w3.org/2000/svg" viewBox="0 0 300 300" class="iconLeftSlogan"><!----><defs data-v-fde0c5aa=""><!----></defs><rect data-v-fde0c5aa="" fill="transparent" x="0" y="0" width="100px" height="100px" class="logo-background-square"></rect><defs data-v-fde0c5aa=""><!----></defs><g data-v-fde0c5aa="" id="a6e9bfa5-3ba6-44ad-a2a2-5999f3c4bbd4" fill="#000000" transform="matrix(4.451319950181437,0,0,4.451319950181437,119.42731399133469,108.57368034514825)"><path d="M5.19 4.54L5.19 4.54L5.19 4.54Q5.01 5.29 4.27 5.91L4.27 5.91L4.27 5.91Q3.56 6.41 2.84 6.90L2.84 6.90L2.84 6.90Q2.88 7.11 3.13 7.22L3.13 7.22L3.13 7.22Q3.37 7.32 3.60 7.42L3.60 7.42L3.60 7.42Q4.76 8.18 4.76 9.21L4.76 9.21L4.76 9.21Q4.76 10.01 4.21 10.68L4.21 10.68L4.21 10.68Q3.79 11.20 2.97 11.70L2.97 11.70L2.97 11.70Q2.30 12.10 1.62 12.49L1.62 12.49L1.62 12.49Q1.46 12.59 1.26 12.59L1.26 12.59L1.26 12.59Q0.80 12.59 0.62 12.21L0.62 12.21L0.62 12.21Q0.64 11.03 0.67 9.87L0.67 9.87L0.67 9.87Q0.70 8.47 0.83 7.56L0.83 7.56L0.83 7.56Q0.53 7.36 0.53 7.11L0.53 7.11L0.53 7.11Q0.53 6.99 0.64 6.88L0.64 6.88L0.64 6.88Q0.74 6.78 0.92 6.65L0.92 6.65L0.92 6.65Q1.09 4.52 0.99 2.73L0.99 2.73L0.99 2.73Q0.34 2.60 0.13 2.14L0.13 2.14L0.13 2.14Q0.11 2.09 0.18 1.97L0.18 1.97L0.18 1.97Q0.24 1.86 0.24 1.79L0.24 1.79L0.24 1.79Q0.56 1.55 0.95 1.55L0.95 1.55L0.95 1.55Q1.23 1.55 2.24 1.74L2.24 1.74L2.24 1.74Q2.76 1.82 3.32 2.11L3.32 2.11L3.32 2.11Q4.83 2.90 5.10 3.64L5.10 3.64L5.10 3.64Q5.28 4.17 5.19 4.54ZM3.88 3.84L3.88 3.84L3.88 3.84Q3.81 3.32 3.04 3.04L3.04 3.04L3.04 3.04Q2.93 3.00 2.69 2.86L2.69 2.86L2.69 2.86Q2.52 2.74 2.41 2.74L2.41 2.74L2.41 2.74Q2.35 2.74 2.28 2.77L2.28 2.77L2.28 2.77Q2.27 3.01 2.27 3.28L2.27 3.28L2.27 3.28Q2.27 3.64 2.32 4.51L2.32 4.51L2.32 4.51Q2.37 5.31 2.35 5.75L2.35 5.75L2.35 5.75Q2.45 5.75 2.65 5.61L2.65 5.61L2.65 5.61Q2.84 5.46 2.87 5.45L2.87 5.45L2.87 5.45Q3.29 5.25 3.61 4.79L3.61 4.79L3.61 4.79Q3.93 4.33 3.88 3.84ZM3.46 9.32L3.46 9.32L3.46 9.32Q3.49 9.17 3.49 9.03L3.49 9.03L3.49 9.03Q3.49 8.61 3.22 8.29L3.22 8.29L3.22 8.29Q2.51 7.94 2.31 7.94L2.31 7.94L2.31 7.94Q2.20 7.94 2.10 7.98L2.10 7.98L2.10 7.98Q2.11 8.12 2.11 8.29L2.11 8.29L2.11 8.29Q2.11 8.58 2.04 9.19L2.04 9.19L2.04 9.19Q1.96 9.80 1.96 10.11L1.96 10.11L1.96 10.11Q1.96 10.56 2.07 10.92L2.07 10.92L2.07 10.92Q2.24 10.72 2.60 10.51L2.60 10.51L2.60 10.51Q2.95 10.29 3.09 10.12L3.09 10.12L3.09 10.12Q3.35 9.83 3.46 9.32ZM10.81 3.00L10.81 3.00L10.81 3.00Q10.71 3.98 10.25 5.61L10.25 5.61L10.25 5.61Q9.62 7.81 9.52 8.27L9.52 8.27L9.52 8.27Q9.21 9.69 8.34 10.85L8.34 10.85L8.34 10.85Q7.80 11.59 7.08 11.58L7.08 11.58L7.08 11.58Q6.45 11.56 6.15 10.78L6.15 10.78L6.15 10.78Q5.61 9.46 5.61 7.69L5.61 7.69L5.61 7.69Q5.61 6.66 5.81 5.05L5.81 5.05L5.81 5.05Q5.80 5.19 5.80 4.19L5.80 4.19L5.80 4.19Q5.80 3.32 6.47 3.32L6.47 3.32L6.47 3.32Q6.61 3.32 6.77 3.39L6.77 3.39L6.77 3.39Q6.93 3.47 7.08 3.56L7.08 3.56L7.08 3.56Q7.10 4.27 7.04 5.66L7.04 5.66L7.04 5.66Q6.97 7.14 6.97 7.80L6.97 7.80L6.97 7.80Q6.97 8.50 7.01 9.07L7.01 9.07L7.01 9.07Q7.04 9.37 7.27 10.19L7.27 10.19L7.27 10.19Q7.85 9.53 8.19 8.44L8.19 8.44L8.19 8.44Q8.30 8.08 8.64 6.45L8.64 6.45L8.64 6.45Q8.90 5.22 9.24 4.52L9.24 4.52L9.24 4.52Q9.34 4.33 9.41 3.78L9.41 3.78L9.41 3.78Q9.48 3.23 9.58 3.02L9.58 3.02L9.58 3.02Q9.73 2.69 10.11 2.69L10.11 2.69L10.11 2.69Q10.60 2.69 10.81 3.00ZM15.27 7.53L15.27 7.53L15.27 7.53Q15.13 7.85 15.01 8.18L15.01 8.18L15.01 8.18Q14.84 8.55 14.64 8.78L14.64 8.78L14.64 8.78Q14.21 9.32 13.78 9.86L13.78 9.86L13.78 9.86Q13.26 10.50 12.84 10.75L12.84 10.75L12.84 10.75Q12.70 10.92 12.53 11.10L12.53 11.10L12.53 11.10Q12.36 11.28 12.19 11.28L12.19 11.28L12.19 11.28Q12.11 11.28 12.00 11.24L12.00 11.24L12.00 11.24Q11.89 11.20 11.75 11.14L11.75 11.14L11.75 11.14Q11.62 11.09 11.56 10.96L11.56 10.96L11.56 10.96Q11.52 10.37 11.52 9.70L11.52 9.70L11.52 9.70Q11.52 9.02 11.58 7.66L11.58 7.66L11.58 7.66Q11.63 6.30 11.63 5.61L11.63 5.61L11.63 5.61Q11.63 4.70 11.56 3.95L11.56 3.95L11.56 3.95Q11.55 3.93 11.26 3.63L11.26 3.63L11.26 3.63Q11.07 3.44 11.07 3.29L11.07 3.29L11.07 3.29Q11.07 3.22 11.10 3.15L11.10 3.15L11.10 3.15Q11.17 2.98 11.41 2.95L11.41 2.95L11.41 2.95Q11.59 2.93 11.77 2.91L11.77 2.91L11.77 2.91Q12.95 3.16 14.24 4.23L14.24 4.23L14.24 4.23Q14.57 4.51 14.78 4.82L14.78 4.82L14.78 4.82Q15.46 5.81 15.46 6.68L15.46 6.68L15.46 6.68Q15.46 7.13 15.27 7.53ZM14.27 6.03L14.27 6.03L14.27 6.03Q14.14 5.15 12.77 4.48L12.77 4.48L12.77 4.48Q12.67 6.82 12.71 9.44L12.71 9.44L12.71 9.44Q14.29 7.85 14.29 6.43L14.29 6.43L14.29 6.43Q14.29 6.23 14.27 6.03ZM20.17 7.53L20.17 7.53L20.17 7.53Q20.03 7.85 19.91 8.18L19.91 8.18L19.91 8.18Q19.74 8.55 19.54 8.78L19.54 8.78L19.54 8.78Q19.11 9.32 18.68 9.86L18.68 9.86L18.68 9.86Q18.16 10.50 17.74 10.75L17.74 10.75L17.74 10.75Q17.60 10.92 17.43 11.10L17.43 11.10L17.43 11.10Q17.26 11.28 17.09 11.28L17.09 11.28L17.09 11.28Q17.01 11.28 16.90 11.24L16.90 11.24L16.90 11.24Q16.79 11.20 16.65 11.14L16.65 11.14L16.65 11.14Q16.52 11.09 16.46 10.96L16.46 10.96L16.46 10.96Q16.42 10.37 16.42 9.70L16.42 9.70L16.42 9.70Q16.42 9.02 16.48 7.66L16.48 7.66L16.48 7.66Q16.53 6.30 16.53 5.61L16.53 5.61L16.53 5.61Q16.53 4.70 16.46 3.95L16.46 3.95L16.46 3.95Q16.45 3.93 16.16 3.63L16.16 3.63L16.16 3.63Q15.97 3.44 15.97 3.29L15.97 3.29L15.97 3.29Q15.97 3.22 16.00 3.15L16.00 3.15L16.00 3.15Q16.07 2.98 16.31 2.95L16.31 2.95L16.31 2.95Q16.49 2.93 16.67 2.91L16.67 2.91L16.67 2.91Q17.85 3.16 19.14 4.23L19.14 4.23L19.14 4.23Q19.47 4.51 19.68 4.82L19.68 4.82L19.68 4.82Q20.36 5.81 20.36 6.68L20.36 6.68L20.36 6.68Q20.36 7.13 20.17 7.53ZM19.17 6.03L19.17 6.03L19.17 6.03Q19.04 5.15 17.67 4.48L17.67 4.48L17.67 4.48Q17.57 6.82 17.61 9.44L17.61 9.44L17.61 9.44Q19.19 7.85 19.19 6.43L19.19 6.43L19.19 6.43Q19.19 6.23 19.17 6.03ZM22.61 3.54L22.61 3.54L22.61 3.54Q22.64 3.95 22.64 4.38L22.64 4.38L22.64 4.38Q22.64 5.33 22.44 7.25L22.44 7.25L22.44 7.25Q22.25 9.17 22.25 10.15L22.25 10.15L22.25 10.15Q22.25 10.51 22.26 10.86L22.26 10.86L22.26 10.86Q22.13 11.26 21.71 11.24L21.71 11.24L21.71 11.24Q21.11 11.21 21.06 10.72L21.06 10.72L21.06 10.72Q21 10.23 21 9.69L21 9.69L21 9.69Q21 8.74 21.23 6.85L21.23 6.85L21.23 6.85Q21.46 4.96 21.46 4.02L21.46 4.02L21.46 4.02Q21.46 3.65 21.43 3.30L21.43 3.30L21.43 3.30Q21.57 3.04 21.91 3.04L21.91 3.04L21.91 3.04Q22.18 3.04 22.44 3.19L22.44 3.19L22.44 3.19Q22.50 3.15 22.53 3.15L22.53 3.15L22.53 3.15Q22.57 3.15 22.57 3.29L22.57 3.29L22.57 3.29Q22.55 3.46 22.57 3.49L22.57 3.49L22.57 3.49Q22.58 3.53 22.61 3.54ZM28.21 3.63L28.21 3.63L28.21 3.63Q27.69 3.84 26.68 4.12L26.68 4.12L26.68 4.12Q25.68 4.40 25.16 4.61L25.16 4.61L25.16 4.61Q25.03 4.97 24.98 6.23L24.98 6.23L24.98 6.23Q25.20 6.31 25.49 6.31L25.49 6.31L25.49 6.31Q25.70 6.31 26.15 6.24L26.15 6.24L26.15 6.24Q26.60 6.17 26.81 6.17L26.81 6.17L26.81 6.17Q27.20 6.17 27.48 6.34L27.48 6.34L27.48 6.34Q27.68 6.62 27.68 6.71L27.68 6.71L27.68 6.71Q27.68 6.80 27.58 6.86L27.58 6.86L27.58 6.86Q27.55 6.87 27.38 7.06L27.38 7.06L27.38 7.06Q27.27 7.18 27.10 7.17L27.10 7.17L27.10 7.17Q26.81 7.24 26.03 7.25L26.03 7.25L26.03 7.25Q25.37 7.27 24.98 7.42L24.98 7.42L24.98 7.42Q24.71 8.46 24.71 9.06L24.71 9.06L24.71 9.06Q24.71 9.46 24.82 9.70L24.82 9.70L24.82 9.70Q25.48 10.16 27.10 10.09L27.10 10.09L27.10 10.09Q27.22 10.09 27.34 9.99L27.34 9.99L27.34 9.99Q27.47 9.88 27.55 9.88L27.55 9.88L27.55 9.88Q27.94 9.80 28.07 10.47L28.07 10.47L28.07 10.47Q28.11 10.70 27.99 10.88L27.99 10.88L27.99 10.88Q27.87 11.07 27.65 11.09L27.65 11.09L27.65 11.09Q25.96 11.14 24.71 10.82L24.71 10.82L24.71 10.82Q24.32 10.72 24.00 10.39L24.00 10.39L24.00 10.39Q23.67 10.05 23.63 9.63L23.63 9.63L23.63 9.63Q23.51 8.41 23.63 7.45L23.63 7.45L23.63 7.45Q23.24 7.18 23.28 6.93L23.28 6.93L23.28 6.93Q23.30 6.80 23.50 6.70L23.50 6.70L23.50 6.70Q23.70 6.59 23.73 6.48L23.73 6.48L23.73 6.48Q23.76 6.37 23.84 5.15L23.84 5.15L23.84 5.15Q23.06 5.00 23.07 4.56L23.07 4.56L23.07 4.56Q23.09 4.16 23.56 3.92L23.56 3.92L23.56 3.92Q24.01 3.74 24.46 3.56L24.46 3.56L24.46 3.56Q24.99 3.29 25.77 3.08L25.77 3.08L25.77 3.08Q26.45 2.90 27.13 2.73L27.13 2.73L27.13 2.73Q27.20 2.72 27.30 2.72L27.30 2.72L27.30 2.72Q27.68 2.72 28.18 3.01L28.18 3.01L28.18 3.01Q28.20 3.07 28.25 3.22L28.25 3.22L28.25 3.22Q28.31 3.37 28.31 3.44L28.31 3.44L28.31 3.44Q28.31 3.56 28.21 3.63ZM31.50 2.16L31.50 2.16L31.50 2.16Q31.50 2.44 31.09 2.65L31.09 2.65L31.09 2.65Q30.98 2.70 30.86 2.66L30.86 2.66L30.86 2.66Q30.66 2.60 30.65 2.60L30.65 2.60L30.65 2.60Q30.56 2.60 30.48 2.69L30.48 2.69L30.48 2.69Q29.72 3.44 29.72 4.54L29.72 4.54L29.72 4.54Q29.72 4.94 29.85 5.29L29.85 5.29L29.85 5.29Q29.90 5.45 30.91 7.46L30.91 7.46L30.91 7.46Q31.58 8.81 31.58 9.74L31.58 9.74L31.58 9.74Q31.58 10.51 31.21 11.23L31.21 11.23L31.21 11.23Q31.08 11.47 30.58 11.84L30.58 11.84L30.58 11.84Q30.17 12.14 29.85 12.14L29.85 12.14L29.85 12.14Q29.72 12.14 29.61 12.10L29.61 12.10L29.61 12.10Q29.19 11.91 29.19 11.63L29.19 11.63L29.19 11.63Q29.19 11.47 29.40 11.23L29.40 11.23L29.40 11.23Q29.46 11.16 29.67 11.14L29.67 11.14L29.67 11.14Q29.88 11.13 29.95 10.98L29.95 10.98L29.95 10.98Q30.24 10.36 30.24 9.72L30.24 9.72L30.24 9.72Q30.24 8.81 29.34 7.08L29.34 7.08L29.34 7.08Q28.43 5.35 28.43 4.31L28.43 4.31L28.43 4.31Q28.43 3.46 28.77 2.79L28.77 2.79L28.77 2.79Q29.15 2.02 29.85 1.68L29.85 1.68L29.85 1.68Q30.17 1.53 30.48 1.53L30.48 1.53L30.48 1.53Q31.07 1.53 31.36 1.85L31.36 1.85L31.36 1.85Q31.50 2.00 31.50 2.16Z"></path></g><defs data-v-fde0c5aa=""><!----></defs><g data-v-fde0c5aa="" id="ad7c132c-1c45-4b09-8ea9-138528b11525" stroke="none" fill="#758bfd" transform="matrix(1.2347686997306322,0,0,1.2347686997306322,11.754665993661789,88.56964014319054)"><path d="M38.917 34.167v-4.538a4.538 4.538 0 1 0 3.209 1.33l-3.209 3.208zM61.084 34.167v-4.538a4.538 4.538 0 1 0 3.209 1.33l-3.209 3.208z"></path><path d="M50 8.25c-14.98 0-27.125 12.145-27.125 27.125v47.126a8.75 8.75 0 0 0 8.75 8.75c3.219 0 6.021-1.744 7.538-4.334h.01c.363-.503.951-.834 1.619-.834s1.256.331 1.619.834h.01c1.518 2.59 4.319 4.334 7.538 4.334 3.218 0 6.021-1.744 7.537-4.334h.01c.363-.503.951-.834 1.619-.834s1.256.331 1.619.834h.011c1.517 2.59 4.319 4.334 7.537 4.334a8.75 8.75 0 0 0 8.75-8.75c0-3.523.083-47.126.083-47.126C77.125 20.395 64.98 8.25 50 8.25zM30.667 34.167a8.25 8.25 0 1 1 16.5 0 8.25 8.25 0 0 1-8.25 8.25 8.25 8.25 0 0 1-8.25-8.25zM50 56.667c-6.269 0-11.453-4.637-12.316-10.667h24.633C61.453 52.03 56.27 56.667 50 56.667zm11.084-14.25a8.25 8.25 0 1 1 0-16.5c4.557 0 8.249 3.694 8.249 8.25s-3.692 8.25-8.249 8.25z"></path></g><defs data-v-fde0c5aa=""><!----></defs><g data-v-fde0c5aa="" id="db979b1f-81f7-4a27-aad0-398f29df2cf1" fill="#000000" transform="matrix(0.6573109321174122,0,0,0.6573109321174122,119.4603532068571,172.8213414012097)"><path d="M4.10 5.88L4.10 5.88Q5.15 5.88 5.89 6.38L5.89 6.38L5.89 6.38Q6.62 6.87 6.94 7.77L6.94 7.77L6.29 8.08L6.29 8.08Q6.05 7.31 5.49 6.90L5.49 6.90L5.49 6.90Q4.93 6.50 4.09 6.50L4.09 6.50L4.09 6.50Q2.87 6.50 2.18 7.30L2.18 7.30L2.18 7.30Q1.50 8.11 1.50 9.52L1.50 9.52L1.50 9.52Q1.50 10.95 2.18 11.75L2.18 11.75L2.18 11.75Q2.86 12.54 4.07 12.54L4.07 12.54L4.07 12.54Q4.97 12.54 5.59 12.10L5.59 12.10L5.59 12.10Q6.22 11.66 6.36 10.88L6.36 10.88L7 11.10L7 11.10Q6.72 12.05 5.94 12.61L5.94 12.61L5.94 12.61Q5.17 13.16 4.09 13.16L4.09 13.16L4.09 13.16Q2.53 13.16 1.67 12.19L1.67 12.19L1.67 12.19Q0.80 11.23 0.80 9.52L0.80 9.52L0.80 9.52Q0.80 7.81 1.67 6.85L1.67 6.85L1.67 6.85Q2.55 5.88 4.10 5.88L4.10 5.88ZM18.76 5.88L18.76 5.88Q20.31 5.88 21.20 6.85L21.20 6.85L21.20 6.85Q22.09 7.83 22.09 9.52L22.09 9.52L22.09 9.52Q22.09 11.21 21.20 12.19L21.20 12.19L21.20 12.19Q20.31 13.16 18.76 13.16L18.76 13.16L18.76 13.16Q17.21 13.16 16.32 12.19L16.32 12.19L16.32 12.19Q15.43 11.21 15.43 9.52L15.43 9.52L15.43 9.52Q15.43 7.83 16.32 6.85L16.32 6.85L16.32 6.85Q17.21 5.88 18.76 5.88L18.76 5.88ZM18.76 6.48L18.76 6.48Q17.53 6.48 16.83 7.29L16.83 7.29L16.83 7.29Q16.13 8.11 16.13 9.52L16.13 9.52L16.13 9.52Q16.13 10.93 16.83 11.75L16.83 11.75L16.83 11.75Q17.53 12.56 18.76 12.56L18.76 12.56L18.76 12.56Q19.99 12.56 20.69 11.75L20.69 11.75L20.69 11.75Q21.39 10.93 21.39 9.52L21.39 9.52L21.39 9.52Q21.39 8.11 20.69 7.29L20.69 7.29L20.69 7.29Q19.99 6.48 18.76 6.48L18.76 6.48ZM39.52 5.87L39.52 5.87Q40.68 5.87 41.42 6.54L41.42 6.54L41.42 6.54Q42.15 7.21 42.15 8.47L42.15 8.47L42.15 13.01L41.45 13.01L41.45 8.54L41.45 8.54Q41.45 7.53 40.91 7.01L40.91 7.01L40.91 7.01Q40.36 6.48 39.44 6.48L39.44 6.48L39.44 6.48Q38.77 6.48 38.21 6.80L38.21 6.80L38.21 6.80Q37.66 7.13 37.33 7.70L37.33 7.70L37.33 7.70Q37.00 8.27 37.00 8.99L37.00 8.99L37.00 13.02L36.30 13.02L36.30 8.55L36.30 8.55Q36.30 7.55 35.76 7.02L35.76 7.02L35.76 7.02Q35.21 6.50 34.29 6.50L34.29 6.50L34.29 6.50Q33.64 6.50 33.08 6.80L33.08 6.80L33.08 6.80Q32.52 7.11 32.18 7.70L32.18 7.70L32.18 7.70Q31.84 8.29 31.84 9.06L31.84 9.06L31.84 13.02L31.14 13.02L31.14 6.02L31.77 6.02L31.81 7.42L31.81 7.42Q32.14 6.69 32.83 6.29L32.83 6.29L32.83 6.29Q33.52 5.88 34.36 5.88L34.36 5.88L34.36 5.88Q35.25 5.88 35.92 6.30L35.92 6.30L35.92 6.30Q36.60 6.72 36.86 7.52L36.86 7.52L36.86 7.52Q37.14 6.75 37.89 6.31L37.89 6.31L37.89 6.31Q38.64 5.87 39.52 5.87L39.52 5.87ZM52.63 4.91L52.63 6.02L55.09 6.02L55.09 6.62L52.63 6.62L52.63 13.02L51.93 13.02L51.93 6.62L50.53 6.62L50.53 6.02L51.93 6.02L51.93 4.84L51.93 4.84Q51.93 3.86 52.47 3.30L52.47 3.30L52.47 3.30Q53.02 2.73 54.01 2.73L54.01 2.73L54.01 2.73Q54.77 2.73 55.15 3.11L55.15 3.11L54.95 3.67L54.95 3.67Q54.60 3.36 54.07 3.36L54.07 3.36L54.07 3.36Q53.38 3.36 53.00 3.76L53.00 3.76L53.00 3.76Q52.63 4.16 52.63 4.91L52.63 4.91ZM66.05 5.88L66.05 5.88Q67.61 5.88 68.50 6.85L68.50 6.85L68.50 6.85Q69.38 7.83 69.38 9.52L69.38 9.52L69.38 9.52Q69.38 11.21 68.50 12.19L68.50 12.19L68.50 12.19Q67.61 13.16 66.05 13.16L66.05 13.16L66.05 13.16Q64.50 13.16 63.61 12.19L63.61 12.19L63.61 12.19Q62.72 11.21 62.72 9.52L62.72 9.52L62.72 9.52Q62.72 7.83 63.61 6.85L63.61 6.85L63.61 6.85Q64.50 5.88 66.05 5.88L66.05 5.88ZM66.05 6.48L66.05 6.48Q64.82 6.48 64.12 7.29L64.12 7.29L64.12 7.29Q63.42 8.11 63.42 9.52L63.42 9.52L63.42 9.52Q63.42 10.93 64.12 11.75L64.12 11.75L64.12 11.75Q64.82 12.56 66.05 12.56L66.05 12.56L66.05 12.56Q67.28 12.56 67.98 11.75L67.98 11.75L67.98 11.75Q68.68 10.93 68.68 9.52L68.68 9.52L68.68 9.52Q68.68 8.11 67.98 7.29L67.98 7.29L67.98 7.29Q67.28 6.48 66.05 6.48L66.05 6.48ZM81.37 5.88L81.37 5.88Q81.93 5.88 82.25 6.12L82.25 6.12L82.07 6.78L82.07 6.78Q81.75 6.52 81.17 6.52L81.17 6.52L81.17 6.52Q80.64 6.52 80.17 6.85L80.17 6.85L80.17 6.85Q79.70 7.18 79.42 7.78L79.42 7.78L79.42 7.78Q79.13 8.37 79.13 9.10L79.13 9.10L79.13 13.02L78.43 13.02L78.43 6.02L79.02 6.02L79.10 7.45L79.10 7.45Q79.39 6.71 79.98 6.29L79.98 6.29L79.98 6.29Q80.56 5.88 81.37 5.88L81.37 5.88ZM94.11 12.00L94.36 12.57L94.36 12.57Q94.08 12.85 93.67 13.01L93.67 13.01L93.67 13.01Q93.27 13.16 92.78 13.16L92.78 13.16L92.78 13.16Q91.92 13.16 91.44 12.69L91.44 12.69L91.44 12.69Q90.96 12.22 90.96 11.27L90.96 11.27L90.96 6.62L89.56 6.62L89.56 6.02L90.96 6.02L90.96 4.27L91.66 4.07L91.66 6.02L94.29 6.02L94.29 6.62L91.66 6.62L91.66 11.17L91.66 11.17Q91.66 11.83 91.97 12.17L91.97 12.17L91.97 12.17Q92.29 12.52 92.89 12.52L92.89 12.52L92.89 12.52Q93.59 12.52 94.11 12.00L94.11 12.00ZM116.94 5.88L116.94 5.88Q117.99 5.88 118.73 6.38L118.73 6.38L118.73 6.38Q119.46 6.87 119.78 7.77L119.78 7.77L119.13 8.08L119.13 8.08Q118.89 7.31 118.33 6.90L118.33 6.90L118.33 6.90Q117.77 6.50 116.93 6.50L116.93 6.50L116.93 6.50Q115.71 6.50 115.02 7.30L115.02 7.30L115.02 7.30Q114.34 8.11 114.34 9.52L114.34 9.52L114.34 9.52Q114.34 10.95 115.02 11.75L115.02 11.75L115.02 11.75Q115.70 12.54 116.91 12.54L116.91 12.54L116.91 12.54Q117.81 12.54 118.43 12.10L118.43 12.10L118.43 12.10Q119.06 11.66 119.20 10.88L119.20 10.88L119.84 11.10L119.84 11.10Q119.56 12.05 118.78 12.61L118.78 12.61L118.78 12.61Q118.01 13.16 116.93 13.16L116.93 13.16L116.93 13.16Q115.37 13.16 114.51 12.19L114.51 12.19L114.51 12.19Q113.64 11.23 113.64 9.52L113.64 9.52L113.64 9.52Q113.64 7.81 114.51 6.85L114.51 6.85L114.51 6.85Q115.39 5.88 116.94 5.88L116.94 5.88ZM129.36 2.80L129.36 11.33L129.36 11.33Q129.36 11.97 129.56 12.24L129.56 12.24L129.56 12.24Q129.77 12.50 130.24 12.50L130.24 12.50L130.24 12.50Q130.52 12.50 130.72 12.46L130.72 12.46L130.72 12.46Q130.91 12.42 131.17 12.31L131.17 12.31L131.07 12.98L131.07 12.98Q130.68 13.16 130.14 13.16L130.14 13.16L130.14 13.16Q129.39 13.16 129.02 12.73L129.02 12.73L129.02 12.73Q128.66 12.31 128.66 11.40L128.66 11.40L128.66 2.80L129.36 2.80ZM142.38 5.88L142.38 5.88Q143.93 5.88 144.82 6.85L144.82 6.85L144.82 6.85Q145.71 7.83 145.71 9.52L145.71 9.52L145.71 9.52Q145.71 11.21 144.82 12.19L144.82 12.19L144.82 12.19Q143.93 13.16 142.38 13.16L142.38 13.16L142.38 13.16Q140.83 13.16 139.94 12.19L139.94 12.19L139.94 12.19Q139.05 11.21 139.05 9.52L139.05 9.52L139.05 9.52Q139.05 7.83 139.94 6.85L139.94 6.85L139.94 6.85Q140.83 5.88 142.38 5.88L142.38 5.88ZM142.38 6.48L142.38 6.48Q141.15 6.48 140.45 7.29L140.45 7.29L140.45 7.29Q139.75 8.11 139.75 9.52L139.75 9.52L139.75 9.52Q139.75 10.93 140.45 11.75L140.45 11.75L140.45 11.75Q141.15 12.56 142.38 12.56L142.38 12.56L142.38 12.56Q143.61 12.56 144.31 11.75L144.31 11.75L144.31 11.75Q145.01 10.93 145.01 9.52L145.01 9.52L145.01 9.52Q145.01 8.11 144.31 7.29L144.31 7.29L144.31 7.29Q143.61 6.48 142.38 6.48L142.38 6.48ZM158.23 12.00L158.48 12.57L158.48 12.57Q158.20 12.85 157.79 13.01L157.79 13.01L157.79 13.01Q157.39 13.16 156.90 13.16L156.90 13.16L156.90 13.16Q156.04 13.16 155.56 12.69L155.56 12.69L155.56 12.69Q155.08 12.22 155.08 11.27L155.08 11.27L155.08 6.62L153.68 6.62L153.68 6.02L155.08 6.02L155.08 4.27L155.78 4.07L155.78 6.02L158.41 6.02L158.41 6.62L155.78 6.62L155.78 11.17L155.78 11.17Q155.78 11.83 156.09 12.17L156.09 12.17L156.09 12.17Q156.41 12.52 157.01 12.52L157.01 12.52L157.01 12.52Q157.71 12.52 158.23 12.00L158.23 12.00ZM170.17 5.88L170.17 5.88Q171.37 5.88 172.11 6.55L172.11 6.55L172.11 6.55Q172.84 7.22 172.84 8.47L172.84 8.47L172.84 13.02L172.14 13.02L172.14 8.69L172.14 8.69Q172.14 7.59 171.59 7.03L171.59 7.03L171.59 7.03Q171.04 6.48 170.10 6.48L170.10 6.48L170.10 6.48Q169.43 6.48 168.85 6.80L168.85 6.80L168.85 6.80Q168.28 7.11 167.94 7.70L167.94 7.70L167.94 7.70Q167.59 8.29 167.59 9.07L167.59 9.07L167.59 13.02L166.89 13.02L166.89 2.80L167.59 2.80L167.59 7.41L167.59 7.41Q167.93 6.66 168.61 6.27L168.61 6.27L168.61 6.27Q169.29 5.88 170.17 5.88L170.17 5.88ZM182.62 4.66L182.62 4.66Q182.35 4.66 182.19 4.50L182.19 4.50L182.19 4.50Q182.03 4.34 182.03 4.07L182.03 4.07L182.03 4.07Q182.03 3.81 182.19 3.65L182.19 3.65L182.19 3.65Q182.35 3.49 182.62 3.49L182.62 3.49L182.62 3.49Q182.88 3.49 183.04 3.65L183.04 3.65L183.04 3.65Q183.20 3.81 183.20 4.07L183.20 4.07L183.20 4.07Q183.20 4.34 183.04 4.50L183.04 4.50L183.04 4.50Q182.88 4.66 182.62 4.66L182.62 4.66ZM182.97 6.02L182.97 13.02L182.27 13.02L182.27 6.02L182.97 6.02ZM195.75 5.88L195.75 5.88Q196.95 5.88 197.69 6.55L197.69 6.55L197.69 6.55Q198.42 7.22 198.42 8.48L198.42 8.48L198.42 13.02L197.72 13.02L197.72 8.71L197.72 8.71Q197.72 7.59 197.18 7.04L197.18 7.04L197.18 7.04Q196.63 6.50 195.68 6.50L195.68 6.50L195.68 6.50Q195.01 6.50 194.43 6.80L194.43 6.80L194.43 6.80Q193.86 7.11 193.51 7.70L193.51 7.70L193.51 7.70Q193.17 8.29 193.17 9.07L193.17 9.07L193.17 13.02L192.47 13.02L192.47 6.02L193.10 6.02L193.13 7.43L193.13 7.43Q193.47 6.68 194.16 6.28L194.16 6.28L194.16 6.28Q194.85 5.88 195.75 5.88L195.75 5.88ZM211.43 12.31L211.43 12.31Q212.48 12.31 213.08 12.74L213.08 12.74L213.08 12.74Q213.68 13.17 213.68 13.90L213.68 13.90L213.68 13.90Q213.68 14.53 213.25 15.02L213.25 15.02L213.25 15.02Q212.83 15.50 212.07 15.76L212.07 15.76L212.07 15.76Q211.32 16.03 210.35 16.03L210.35 16.03L210.35 16.03Q208.77 16.03 207.93 15.52L207.93 15.52L207.93 15.52Q207.09 15.01 207.09 14.17L207.09 14.17L207.09 14.17Q207.09 13.62 207.42 13.23L207.42 13.23L207.42 13.23Q207.76 12.84 208.35 12.67L208.35 12.67L208.35 12.67Q207.93 12.49 207.68 12.17L207.68 12.17L207.68 12.17Q207.44 11.84 207.44 11.45L207.44 11.45L207.44 11.45Q207.44 10.95 207.77 10.60L207.77 10.60L207.77 10.60Q208.10 10.25 208.66 10.09L208.66 10.09L208.66 10.09Q208.08 9.80 207.77 9.30L207.77 9.30L207.77 9.30Q207.47 8.81 207.47 8.16L207.47 8.16L207.47 8.16Q207.47 7.13 208.24 6.50L208.24 6.50L208.24 6.50Q209.02 5.88 210.31 5.88L210.31 5.88L210.31 5.88Q211.20 5.88 211.89 6.20L211.89 6.20L211.89 6.20Q211.97 5.53 212.45 5.13L212.45 5.13L212.45 5.13Q212.93 4.73 213.64 4.73L213.64 4.73L213.81 5.35L213.81 5.35Q213.15 5.35 212.77 5.64L212.77 5.64L212.77 5.64Q212.39 5.94 212.34 6.48L212.34 6.48L212.34 6.48Q213.14 7.13 213.14 8.16L213.14 8.16L213.14 8.16Q213.14 9.20 212.36 9.83L212.36 9.83L212.36 9.83Q211.58 10.46 210.31 10.46L210.31 10.46L210.31 10.46Q209.87 10.46 209.36 10.36L209.36 10.36L209.36 10.36Q208.77 10.43 208.44 10.70L208.44 10.70L208.44 10.70Q208.11 10.98 208.11 11.35L208.11 11.35L208.11 11.35Q208.11 11.80 208.49 12.05L208.49 12.05L208.49 12.05Q208.87 12.31 209.62 12.31L209.62 12.31L211.43 12.31ZM208.17 8.16L208.17 8.16Q208.17 8.95 208.74 9.41L208.74 9.41L208.74 9.41Q209.31 9.87 210.31 9.87L210.31 9.87L210.31 9.87Q211.29 9.87 211.86 9.41L211.86 9.41L211.86 9.41Q212.44 8.95 212.44 8.16L212.44 8.16L212.44 8.16Q212.44 7.38 211.86 6.92L211.86 6.92L211.86 6.92Q211.29 6.47 210.31 6.47L210.31 6.47L210.31 6.47Q209.33 6.47 208.75 6.92L208.75 6.92L208.75 6.92Q208.17 7.38 208.17 8.16L208.17 8.16ZM210.42 15.44L210.42 15.44Q211.61 15.44 212.33 15.03L212.33 15.03L212.33 15.03Q213.05 14.62 213.05 13.99L213.05 13.99L213.05 13.99Q213.05 13.48 212.60 13.20L212.60 13.20L212.60 13.20Q212.14 12.91 211.27 12.91L211.27 12.91L209.47 12.91L209.47 12.91Q208.67 12.91 208.20 13.22L208.20 13.22L208.20 13.22Q207.73 13.54 207.73 14.06L207.73 14.06L207.73 14.06Q207.73 14.70 208.43 15.07L208.43 15.07L208.43 15.07Q209.13 15.44 210.42 15.44L210.42 15.44Z"></path></g></svg>